<svg width="500" height="128" viewBox="0 0 500 128" fill="none" xmlns="http://www.w3.org/2000/svg">
<path d="M4.27083 38.6979V88.6198C4.27083 91.7969 5.96354 94.7396 8.72396 96.3281L51.9531 121.276C54.7135 122.865 58.099 122.865 60.8594 121.276L104.089 96.3281C106.849 94.7396 108.542 91.7969 108.542 88.6198V38.6979C108.542 35.5209 106.849 32.5781 104.089 30.9896L60.8594 6.04169C58.099 4.45315 54.7135 4.45315 51.9531 6.04169L8.72396 30.9896C5.98958 32.5781 4.27083 35.5209 4.27083 38.6979Z" fill="#213147"/>
<path d="M65.8594 73.3333L59.6875 90.2344C59.5052 90.7031 59.5052 91.2239 59.6875 91.6927L70.2865 120.781L82.5521 113.698L67.8385 73.3333C67.5 72.3958 66.1979 72.3958 65.8594 73.3333Z" fill="#12AAFF"/>
<path d="M78.2031 44.8958C77.8646 43.9583 76.5625 43.9583 76.224 44.8958L70.0521 61.7969C69.8698 62.2656 69.8698 62.7864 70.0521 63.2552L87.4219 110.885L99.6875 103.802L78.2031 44.8958Z" fill="#12AAFF"/>
<path d="M56.4062 7.89062C56.7187 7.89062 57.0052 7.96875 57.2917 8.125L104.062 35.1302C104.609 35.4427 104.948 36.0156 104.948 36.6406V90.651C104.948 91.276 104.609 91.849 104.062 92.1615L57.2917 119.193C57.0312 119.349 56.7187 119.427 56.4062 119.427C56.0937 119.427 55.8073 119.349 55.5208 119.193L8.77604 92.1875C8.22917 91.875 7.89062 91.3021 7.89062 90.6771V36.6406C7.89062 36.0156 8.22917 35.4427 8.77604 35.1302L55.5469 8.125C55.8073 7.96875 56.1198 7.89062 56.4062 7.89062ZM56.4062 0C54.7396 0 53.0729 0.442708 51.5885 1.30208L4.81771 28.3073C1.84896 30.026 0 33.2031 0 36.6406V90.651C0 94.0885 1.84896 97.2917 4.81771 99.0104L51.5885 126.016C53.0729 126.875 54.7396 127.318 56.4062 127.318C58.0729 127.318 59.7396 126.875 61.224 126.016L107.995 99.0104C110.99 97.2917 112.812 94.1146 112.812 90.651V36.6406C112.812 33.2031 110.964 30 107.995 28.2812L61.25 1.30208C59.7396 0.442708 58.0729 0 56.4062 0Z" fill="#9DCCED"/>
<path d="M25.4948 110.938L29.7917 99.1667L38.4375 106.354L30.3646 113.75L25.4948 110.938Z" fill="#213147"/>
<path d="M52.474 32.7864H40.625C39.7396 32.7864 38.9323 33.3333 38.6458 34.1666L13.2292 103.854L25.4948 110.937L53.4896 34.1927C53.724 33.5156 53.2292 32.7864 52.474 32.7864Z" fill="white"/>
<path d="M73.2292 32.7864H61.3802C60.4948 32.7864 59.6875 33.3333 59.401 34.1666L30.3646 113.75L42.6302 120.833L74.2188 34.2187C74.4792 33.5156 73.9583 32.7864 73.2292 32.7864Z" fill="white"/>
<path d="M163.307 47.2917C164.479 47.2917 165.495 47.5261 166.302 48.0209C167.109 48.5156 167.917 49.4531 168.698 50.8594L184.167 78.9323C184.323 79.2448 184.349 79.5052 184.271 79.7136C184.193 79.9219 183.958 80.0261 183.594 80.0261H177.656C177.135 80.0261 176.771 79.8177 176.589 79.4271L173.281 73.4115H151.328L148.099 79.4271C147.891 79.8438 147.526 80.0261 147.031 80.0261H140.964C140.547 80.0261 140.312 79.9219 140.234 79.7136C140.156 79.5052 140.182 79.2448 140.339 78.9323L155.677 50.8594C156.458 49.4531 157.214 48.5156 157.969 48.0209C158.724 47.5261 159.583 47.2917 160.573 47.2917H163.307ZM154.219 67.9427H170.312L162.891 54.2448C162.76 54.0365 162.604 53.9063 162.37 53.9063H162.083C161.875 53.9063 161.693 54.0104 161.563 54.2448L154.219 67.9427Z" fill="white"/>
<path d="M218.151 47.2917C221.745 47.2917 224.297 48.099 225.859 49.7136C227.422 51.3281 228.203 53.724 228.203 56.9011V59.5573C228.203 62.2396 227.656 64.349 226.562 65.9115C225.469 67.474 223.698 68.4636 221.224 68.9063L229.219 78.8021C229.375 78.9584 229.427 79.1927 229.349 79.5052C229.297 79.8177 229.036 79.974 228.594 79.974H222.578C222.161 79.974 221.901 79.9219 221.745 79.8438C221.589 79.7396 221.432 79.5833 221.276 79.375L213.88 69.6615H198.776V78.9584C198.776 79.6354 198.437 79.974 197.76 79.974H192.708C191.979 79.974 191.641 79.6354 191.641 78.9584V48.6979C191.641 47.7604 192.109 47.2917 193.047 47.2917H218.151ZM198.802 63.9844H216.693C218.281 63.9844 219.401 63.6459 220.052 62.9688C220.703 62.2917 221.042 61.25 221.042 59.8438V57.8906C221.042 56.4844 220.703 55.4427 220.052 54.7656C219.401 54.0886 218.281 53.75 216.693 53.75H199.401C198.984 53.75 198.802 53.9323 198.802 54.3229V63.9844Z" fill="white"/>
<path d="M267.292 47.2917C270.495 47.2917 272.786 47.9427 274.141 49.2188C275.495 50.4948 276.172 52.4219 276.172 55V57.2396C276.172 59.8438 275.182 61.8229 273.177 63.1771C275.312 64.4271 276.406 66.4323 276.406 69.1927V71.9011C276.406 73.1511 276.276 74.2709 275.99 75.2604C275.703 76.25 275.26 77.1094 274.609 77.8125C273.958 78.5156 273.125 79.0625 272.057 79.4271C270.99 79.7917 269.687 80 268.125 80H240.365C239.427 80 238.958 79.5313 238.958 78.5938V48.6979C238.958 47.7604 239.427 47.2917 240.365 47.2917H267.292ZM246.12 60.8854H265.286C266.849 60.8854 267.891 60.6511 268.464 60.1823C269.036 59.7136 269.297 59.0365 269.297 58.125V56.5365C269.297 55.5729 269.036 54.8698 268.49 54.4011C267.943 53.9584 267.057 53.724 265.859 53.724H246.745C246.328 53.724 246.146 53.9323 246.146 54.3229V60.8854H246.12ZM246.12 65.9896V72.9427C246.12 73.3594 246.328 73.5417 246.719 73.5417H265.885C267.135 73.5417 268.021 73.3073 268.542 72.8646C269.062 72.4219 269.349 71.6927 269.349 70.7031V68.9323C269.349 67.9688 269.063 67.2396 268.49 66.7448C267.917 66.25 266.849 65.9896 265.286 65.9896H246.12Z" fill="white"/>
<path d="M293.828 47.2917C294.505 47.2917 294.844 47.6302 294.844 48.3073V78.9584C294.844 79.6354 294.505 79.974 293.828 79.974H288.776C288.047 79.974 287.708 79.6354 287.708 78.9584V48.3334C287.708 47.6563 288.073 47.3177 288.776 47.3177L293.828 47.2917Z" fill="white"/>
<path d="M342.786 47.2917C343.516 47.2917 343.854 47.6302 343.854 48.3073V52.8906C343.854 53.6198 343.49 53.9584 342.786 53.9584H328.125V78.9584C328.125 79.6354 327.786 79.974 327.109 79.974H322.005C321.328 79.974 320.99 79.6354 320.99 78.9584V53.9584H306.328C305.599 53.9584 305.26 53.5938 305.26 52.8906V48.3073C305.26 47.6302 305.625 47.2917 306.328 47.2917H342.786Z" fill="white"/>
<path d="M379.74 47.2917C383.333 47.2917 385.885 48.099 387.448 49.7136C389.01 51.3281 389.792 53.724 389.792 56.9011V59.5573C389.792 62.2396 389.245 64.349 388.151 65.9115C387.057 67.474 385.286 68.4636 382.813 68.9063L390.807 78.8021C390.964 78.9584 391.016 79.1927 390.938 79.5052C390.885 79.8177 390.625 79.974 390.182 79.974H384.167C383.75 79.974 383.49 79.9219 383.333 79.8438C383.177 79.7396 383.021 79.5833 382.865 79.375L375.469 69.6615H360.365V78.9584C360.365 79.6354 360.026 79.974 359.349 79.974H354.297C353.568 79.974 353.229 79.6354 353.229 78.9584V48.6979C353.229 47.7604 353.698 47.2917 354.635 47.2917H379.74ZM360.417 63.9844H378.307C379.896 63.9844 381.016 63.6459 381.667 62.9688C382.318 62.2917 382.656 61.25 382.656 59.8438V57.8906C382.656 56.4844 382.318 55.4427 381.667 54.7656C381.016 54.0886 379.896 53.75 378.307 53.75H361.016C360.599 53.75 360.417 53.9323 360.417 54.3229V63.9844Z" fill="white"/>
<path d="M406.016 47.2917C406.693 47.2917 407.031 47.6302 407.031 48.3073V66.9531C407.031 68.2031 407.135 69.2448 407.344 70.0521C407.552 70.8854 407.891 71.5365 408.359 72.0052C408.828 72.5 409.453 72.8386 410.26 73.0209C411.068 73.2292 412.057 73.3334 413.281 73.3334H426.224C427.448 73.3334 428.438 73.2292 429.245 73.0209C430.052 72.8125 430.677 72.474 431.146 72.0052C431.615 71.5104 431.953 70.8594 432.135 70.0521C432.318 69.2188 432.422 68.2031 432.422 66.9531V48.3073C432.422 47.6302 432.76 47.2917 433.438 47.2917H438.542C439.219 47.2917 439.557 47.6302 439.557 48.3073V67.6563C439.557 69.8959 439.323 71.7969 438.854 73.3854C438.385 74.9479 437.63 76.224 436.589 77.2136C435.547 78.2031 434.193 78.9063 432.526 79.349C430.859 79.7917 428.854 80 426.484 80H413.021C410.651 80 408.646 79.7917 407.005 79.349C405.365 78.9063 404.01 78.2031 402.969 77.2136C401.927 76.224 401.172 74.9479 400.677 73.3854C400.182 71.8229 399.948 69.8959 399.948 67.6563V48.3073C399.948 47.6302 400.313 47.2917 401.016 47.2917H406.016Z" fill="white"/>
<path d="M459.635 47.2917C460.313 47.2917 460.911 47.3438 461.406 47.4219C461.901 47.5261 462.344 47.6823 462.708 47.9688C463.073 48.2292 463.411 48.5938 463.724 49.0365C464.01 49.4792 464.323 50.0781 464.635 50.8334L474.349 73.2552C474.479 73.5417 474.688 73.6719 475 73.6719H475.573C475.885 73.6719 476.094 73.5417 476.224 73.2552L485.938 50.8334C486.25 50.0781 486.563 49.4792 486.849 49.0365C487.135 48.5938 487.474 48.2292 487.865 47.9688C488.229 47.7084 488.672 47.5261 489.141 47.4219C489.635 47.3177 490.208 47.2917 490.885 47.2917H495.885C497.5 47.2917 498.594 47.6563 499.167 48.3854C499.74 49.1146 500 50.3646 500 52.1354V78.9584C500 79.6354 499.635 79.974 498.932 79.974H494.167C493.49 79.974 493.151 79.6354 493.151 78.9584V54.5573C493.151 54.2448 493.021 54.0886 492.786 54.0886H492.37C492.057 54.0886 491.849 54.2188 491.771 54.4531L482.344 75.3906C481.979 76.224 481.589 76.9531 481.198 77.5261C480.807 78.099 480.391 78.5677 479.948 78.9584C479.505 79.3229 478.984 79.6094 478.411 79.7656C477.839 79.9219 477.161 80 476.38 80H474.141C473.359 80 472.682 79.9219 472.109 79.7656C471.536 79.6094 471.016 79.349 470.573 78.9584C470.13 78.5938 469.687 78.099 469.323 77.5261C468.932 76.9531 468.542 76.25 468.177 75.3906L458.75 54.4531C458.646 54.1927 458.464 54.0886 458.151 54.0886H457.734C457.474 54.0886 457.37 54.2448 457.37 54.5573V78.9584C457.37 79.6354 457.031 79.974 456.354 79.974H451.589C450.859 79.974 450.521 79.6354 450.521 78.9584V52.1354C450.521 50.3646 450.807 49.1146 451.354 48.3854C451.927 47.6563 453.021 47.2917 454.661 47.2917H459.635Z" fill="white"/>
</svg>
