<svg width="149" height="30" viewBox="0 0 149 30" fill="none" xmlns="http://www.w3.org/2000/svg">
<g clip-path="url(#clip0_3974_223130)">
<path d="M40.6612 9.81104H42.2691L46.7682 20.2525H44.644L43.6704 17.8633H39.1418L38.1977 20.2525H36.1178L40.6612 9.81104ZM43.0214 16.2705L41.4135 12.0232L39.7761 16.2705H43.0214Z" fill="#F7FAFF"/>
<path d="M48.7618 9.81104H50.9008L53.7477 17.7011L56.6831 9.81104H58.6896L54.4706 20.2525H52.8628L48.7618 9.81104Z" fill="#F7FAFF"/>
<path d="M65.3319 9.81104H66.9401L71.4389 20.2525H69.3148L68.3414 17.8633H63.8126L62.8684 20.2525H60.7887L65.3319 9.81104ZM67.6922 16.2705L66.0844 12.0232L64.447 16.2705H67.6922Z" fill="#F7FAFF"/>
<path d="M75.55 9.81104H77.4088V18.5712H81.8487V20.2525H75.55V9.81104Z" fill="#F7FAFF"/>
<path d="M89.5273 9.81104H91.1356L95.6343 20.2525H93.5102L92.5368 17.8633H88.008L87.0642 20.2525H84.9841L89.5273 9.81104ZM91.8876 16.2705L90.2798 12.0232L88.6424 16.2705H91.8876Z" fill="#F7FAFF"/>
<path d="M99.7455 9.81104H102.209L107.269 17.5684H107.298V9.81104H109.156V20.2525H106.797L101.633 12.2444H101.604V20.2525H99.7455V9.81104Z" fill="#F7FAFF"/>
<path d="M121.605 12.2591C121.222 11.8462 120.848 11.5709 120.484 11.4332C120.13 11.2956 119.771 11.2268 119.407 11.2268C118.867 11.2268 118.375 11.3251 117.932 11.5217C117.5 11.7085 117.126 11.974 116.811 12.3181C116.497 12.6524 116.251 13.0457 116.073 13.4979C115.906 13.9502 115.823 14.4369 115.823 14.9579C115.823 15.5184 115.906 16.0346 116.073 16.5065C116.251 16.9784 116.497 17.3864 116.811 17.7305C117.126 18.0747 117.5 18.345 117.932 18.5416C118.375 18.7383 118.867 18.8366 119.407 18.8366C119.83 18.8366 120.238 18.7383 120.632 18.5416C121.035 18.3352 121.408 18.0108 121.753 17.5683L123.287 18.6597C122.815 19.3085 122.24 19.7805 121.561 20.0754C120.882 20.3704 120.159 20.5178 119.393 20.5178C118.586 20.5178 117.844 20.3901 117.165 20.1344C116.497 19.869 115.916 19.5003 115.425 19.0284C114.943 18.5466 114.564 17.9714 114.289 17.3028C114.013 16.6343 113.876 15.892 113.876 15.0759C113.876 14.2402 114.013 13.4832 114.289 12.8048C114.564 12.1166 114.943 11.5316 115.425 11.0498C115.916 10.568 116.497 10.1993 117.165 9.94368C117.844 9.67826 118.586 9.54553 119.393 9.54553C120.101 9.54553 120.755 9.67331 121.355 9.92896C121.964 10.1747 122.529 10.5975 123.051 11.1972L121.605 12.2591Z" fill="#F7FAFF"/>
<path d="M127.485 9.81104H129.343V13.9699H134.226V9.81104H136.085V20.2525H134.226V15.6511H129.343V20.2525H127.485V9.81104Z" fill="#F7FAFF"/>
<path d="M141.369 9.81104H148.287V11.4922H143.227V14.0584H148.022V15.7396H143.227V18.5712H148.553V20.2525H141.369V9.81104Z" fill="#F7FAFF"/>
<path fill-rule="evenodd" clip-rule="evenodd" d="M15.6356 29.9995C23.909 29.9995 30.616 23.2941 30.616 15.0226C30.616 6.75113 23.909 0.0457764 15.6356 0.0457764C7.3622 0.0457764 0.655273 6.75113 0.655273 15.0226C0.655273 23.2941 7.3622 29.9995 15.6356 29.9995ZM11.1092 21.8078H7.59499C6.76178 21.8078 6.34516 21.8078 6.09565 21.6465C5.82601 21.4722 5.65587 21.1796 5.63786 20.8593C5.62114 20.5628 5.82749 20.2015 6.24018 19.4786L6.24036 19.4784L13.9346 6.00201C14.3534 5.2685 14.5628 4.90174 14.8292 4.76525C15.117 4.61773 15.4584 4.61748 15.7464 4.76456C16.013 4.90067 16.2229 5.26715 16.6428 6.00002L18.4173 9.09766L18.4174 9.09771C18.7227 9.63062 18.8753 9.89706 18.9425 10.1782C19.0155 10.4842 19.0157 10.8031 18.9429 11.1091C18.876 11.3903 18.7236 11.657 18.4187 12.1902L13.8176 20.2374C13.5083 20.7784 13.3536 21.0489 13.1417 21.2511C12.9111 21.4712 12.6314 21.6334 12.3257 21.7243C12.0448 21.8078 11.7329 21.8078 11.1092 21.8078ZM23.647 21.8078H19.5727C18.7319 21.8078 18.3115 21.8078 18.0612 21.6451C17.7908 21.4693 17.6211 21.1745 17.6052 20.8527C17.5903 20.5548 17.8019 20.1918 18.2251 19.4661L20.2589 15.9776C20.6767 15.261 20.8856 14.9027 21.1501 14.7685C21.436 14.6234 21.774 14.6233 22.06 14.7678C22.3248 14.9016 22.5341 15.2596 22.9529 15.9755L22.953 15.9757L24.9936 19.4641C25.4183 20.1903 25.6307 20.5535 25.6162 20.8516C25.6005 21.1737 25.431 21.4688 25.1604 21.6449C24.9101 21.8078 24.4891 21.8078 23.647 21.8078Z" fill="#E84142"/>
</g>
<defs>
<clipPath id="clip0_3974_223130">
<rect width="147.905" height="30" fill="white" transform="translate(0.648193)"/>
</clipPath>
</defs>
</svg>
