<svg width="172" height="30" viewBox="0 0 172 30" fill="none" xmlns="http://www.w3.org/2000/svg">
<g clip-path="url(#clip0_3974_223131)">
<path d="M5.55812 4.59513L13.5191 0L21.4801 4.59513L18.5532 6.29269L13.5191 3.39512L8.48496 6.29269L5.55812 4.59513ZM21.4801 10.3902L18.5532 8.69269L13.5191 11.5903L8.48496 8.69269L5.55812 10.3902V13.7854L10.5923 16.6829V22.478L13.5191 24.1756L16.446 22.478V16.6829L21.4801 13.7854V10.3902ZM21.4801 19.5805V16.1854L18.5532 17.8829V21.278L21.4801 19.5805ZM23.5581 20.7805L18.524 23.678V27.0731L26.485 22.478V13.2878L23.5581 14.9854V20.7805ZM20.6313 7.49269L23.5581 9.19024V12.5854L26.485 10.8878V7.49269L23.5581 5.79513L20.6313 7.49269ZM10.5923 24.9074V28.3025L13.5191 30L16.446 28.3025V24.9074L13.5191 26.6049L10.5923 24.9074ZM5.55812 19.5805L8.48496 21.278V17.8829L5.55812 16.1854V19.5805ZM10.5923 7.49269L13.5191 9.19024L16.446 7.49269L13.5191 5.79513L10.5923 7.49269ZM3.48005 9.19024L6.40689 7.49269L3.48005 5.79513L0.553223 7.49269V10.8878L3.48005 12.5854V9.19024ZM3.48005 14.9854L0.553223 13.2878V22.478L8.51419 27.0731V23.678L3.48005 20.7805V14.9854Z" fill="#F0B90B"/>
<path d="M49.5594 18.827V18.7792C49.5594 16.5372 48.3668 15.4162 46.4349 14.6769C47.6274 14.0091 48.6292 12.9596 48.6292 11.0753V11.0276C48.6292 8.40401 46.5303 6.71057 43.1195 6.71057H35.3679V23.4065H43.3104C47.0789 23.4065 49.5594 21.88 49.5594 18.827ZM44.9799 11.6955C44.9799 12.9357 43.9544 13.4605 42.3325 13.4605H38.9457V9.93048H42.571C44.1213 9.93048 44.9799 10.5506 44.9799 11.6478V11.6955ZM45.9102 18.3739C45.9102 19.6141 44.9323 20.1865 43.3104 20.1865H38.9457V16.5135H43.1912C45.0754 16.5135 45.9102 17.2051 45.9102 18.3261V18.3739Z" fill="#F0B90B"/>
<path d="M67.655 23.4065V6.71057H64.0295V16.9905L56.2063 6.71057H52.8195V23.4065H56.4448V12.7926L64.5303 23.4065H67.655Z" fill="#F0B90B"/>
<path d="M86.0929 18.827V18.7792C86.0929 16.5372 84.9002 15.4162 82.9684 14.6769C84.1609 14.0091 85.1626 12.9596 85.1626 11.0753V11.0276C85.1626 8.40401 83.0637 6.71057 79.653 6.71057H71.9014V23.4065H79.8439C83.6124 23.4065 86.0929 21.88 86.0929 18.827ZM81.5135 11.6955C81.5135 12.9357 80.4879 13.4605 78.866 13.4605H75.4791V9.93048H79.1045C80.6547 9.93048 81.5135 10.5506 81.5135 11.6478V11.6955ZM82.4436 18.3739C82.4436 19.6141 81.4657 20.1865 79.8439 20.1865H75.4791V16.5135H79.7246C81.6089 16.5135 82.4436 17.2051 82.4436 18.3261V18.3739Z" fill="#F0B90B"/>
<path d="M108.23 20.457L106.346 18.549C104.914 19.8846 103.603 20.7194 101.551 20.7194C98.3553 20.7194 96.0418 18.0481 96.0418 14.7566C96.0418 11.4651 98.3553 8.84149 101.551 8.84149C103.46 8.84149 104.891 9.67629 106.226 10.9166L108.111 8.74609C106.512 7.21961 104.652 6.1463 101.575 6.1463C96.5188 6.1463 92.965 10.0341 92.965 14.8044C92.965 19.6222 96.5905 23.4146 101.456 23.4146C104.581 23.4146 106.489 22.2697 108.23 20.457Z" fill="#F0B90B"/>
<path d="M122.452 16.0922V23.1283H125.386V6.4325H122.452V13.3732H114.486V6.4325H111.552V23.1283H114.486V16.0922H122.452Z" fill="#F0B90B"/>
<path d="M138.546 6.31329H135.827L128.481 23.1284H131.486L133.203 19.0975H141.098L142.792 23.1284H145.892L138.546 6.31329ZM140.024 16.4978H134.277L137.138 9.81943L140.024 16.4978Z" fill="#F0B90B"/>
<path d="M149.161 6.4325V23.1283H152.095V6.4325H149.161Z" fill="#F0B90B"/>
<path d="M168.466 17.9765L159.521 6.4325H156.802V23.1283H159.688V11.2504L168.895 23.1283H171.352V6.4325H168.466V17.9765Z" fill="#F0B90B"/>
</g>
<defs>
<clipPath id="clip0_3974_223131">
<rect width="171.25" height="30" fill="white" transform="translate(0.553223)"/>
</clipPath>
</defs>
</svg>
