<svg width="167" height="30" viewBox="0 0 167 30" fill="none" xmlns="http://www.w3.org/2000/svg">
<path d="M33.0584 18.407C33.1951 20.6112 35.0253 23.359 38.1206 23.365C40.2347 23.3679 41.5119 22.4021 42.412 21.1637C42.5712 20.9445 42.9183 20.9074 43.1557 21.0437L43.1572 21.0452C43.2835 21.1178 43.3736 21.2378 43.4052 21.3785C43.4382 21.5192 43.4097 21.6659 43.3285 21.7859C42.5066 22.9946 40.7591 24.5352 38.0394 24.4078C36.041 24.4078 34.5805 23.3738 33.5182 22.2421C32.6587 21.3207 31.9976 19.7683 31.9976 17.8944C31.9976 16.0532 32.561 14.5644 33.691 13.4268C34.8194 12.2906 36.1717 11.4655 38.0394 11.4655C39.9072 11.4655 41.2715 12.1603 42.3443 13.2964C43.7297 14.7615 44.1054 16.2709 44.161 17.8663C44.1655 18.0085 44.1114 18.1463 44.0122 18.2485C43.9115 18.3507 43.7733 18.4085 43.6306 18.4085C41.2204 18.407 33.0584 18.407 33.0584 18.407ZM38.0394 12.4743C36.6586 12.4847 35.6278 13.0846 34.7428 13.8534C33.8578 14.6222 33.2522 16.0754 33.105 17.4219H42.9634C42.8823 16.0769 42.2301 14.8237 41.4323 13.9838C40.6494 13.1572 39.8335 12.461 38.0394 12.4743Z" fill="white"/>
<path d="M81.8577 18.407C81.9945 20.6112 83.8246 23.3591 86.9199 23.365C89.0341 23.368 90.3113 22.4021 91.2113 21.1637C91.3706 20.9445 91.7177 20.9075 91.9551 21.0438L91.9566 21.0452C92.0828 21.1178 92.173 21.2378 92.2045 21.3785C92.2376 21.5193 92.209 21.6659 92.1279 21.7859C91.306 22.9947 89.5585 24.5352 86.8388 24.4078C84.8404 24.4078 83.3799 23.3739 82.3175 22.2421C81.4565 21.3237 80.7954 19.7698 80.7954 17.8974C80.7954 16.0561 81.3589 14.5674 82.4888 13.4298C83.6173 12.2936 84.9696 11.4685 86.8373 11.4685C88.705 11.4685 90.0693 12.1632 91.1422 13.2994C92.5276 14.7644 92.9032 16.2739 92.9588 17.8693C92.9633 18.0115 92.9092 18.1493 92.8101 18.2515C92.7094 18.3537 92.5711 18.4115 92.4284 18.4115C90.0198 18.407 81.8577 18.407 81.8577 18.407ZM86.8403 12.4743C85.4594 12.4847 84.4286 13.0846 83.5436 13.8534C82.6586 14.6222 82.0531 16.0754 81.9058 17.4219H91.7643C91.6831 16.0769 91.031 14.8237 90.2331 13.9838C89.4488 13.1572 88.6329 12.461 86.8403 12.4743Z" fill="white"/>
<path d="M112.058 18.407C112.195 20.6112 114.025 23.3591 117.12 23.365C119.235 23.368 120.512 22.4021 121.412 21.1637C121.571 20.9445 121.918 20.9075 122.156 21.0438L122.157 21.0452C122.283 21.1178 122.373 21.2378 122.405 21.3785C122.438 21.5193 122.409 21.6659 122.328 21.7859C121.506 22.9947 119.759 24.5352 117.039 24.4078C115.041 24.4078 113.58 23.3739 112.518 22.2421C111.657 21.3237 110.996 19.7698 110.996 17.8974C110.996 16.0561 111.561 14.5674 112.689 13.4298C113.818 12.2936 115.17 11.4685 117.038 11.4685C118.905 11.4685 120.27 12.1632 121.343 13.2994C122.728 14.7644 123.104 16.2739 123.159 17.8693C123.164 18.0115 123.11 18.1493 123.01 18.2515C122.91 18.3537 122.772 18.4115 122.627 18.4115C120.219 18.407 112.058 18.407 112.058 18.407ZM117.039 12.4743C115.658 12.4847 114.628 13.0846 113.743 13.8534C112.858 14.6222 112.251 16.0754 112.105 17.4219H121.963C121.882 16.0769 121.23 14.8237 120.432 13.9838C119.648 13.1572 118.832 12.461 117.039 12.4743Z" fill="white"/>
<path d="M54.0509 12.6951V23.7487C54.0509 24.0153 53.8301 24.2346 53.5581 24.2346C53.2876 24.2346 53.0652 24.0168 53.0652 23.7487V12.6951H50.2479C49.9849 12.6951 49.7701 12.4832 49.7701 12.224C49.7701 11.9648 49.9849 11.7529 50.2479 11.7529H53.0652V7.66006C53.0652 7.39046 53.2891 7.16974 53.5626 7.16974H53.5731C53.8361 7.16974 54.0509 7.38157 54.0509 7.6408V11.7544H56.9569C57.2199 11.7544 57.4348 11.9663 57.4348 12.2255C57.4348 12.4847 57.2199 12.6965 56.9569 12.6965H54.0509V12.6951Z" fill="white"/>
<path d="M69.9287 11.6137C67.9709 11.347 66.1167 11.9899 64.838 14.0712V1.80437C64.838 1.54514 64.6231 1.33331 64.3602 1.33331H64.3496C64.0762 1.33331 63.8523 1.55403 63.8523 1.82363V23.7472C63.8523 24.0138 64.0732 24.233 64.3451 24.233C64.6156 24.233 64.838 24.0153 64.838 23.7472V16.3361C64.838 14.2593 67.5051 12.0255 69.9257 12.5588C71.4854 12.9024 73.0436 14.4267 73.0376 16.8664V23.7457C73.0376 24.0123 73.2585 24.2316 73.5304 24.2316C73.8009 24.2316 74.0233 24.0138 74.0233 23.7457V16.8916C74.1645 14.8 72.701 11.9914 69.9287 11.6137Z" fill="white"/>
<path d="M133.994 24.4449C135.952 24.7115 137.806 24.0686 139.085 21.9874V23.7516C139.085 24.0109 139.3 24.2227 139.563 24.2227H139.573C139.847 24.2227 140.071 24.002 140.071 23.7324V12.3114C140.071 12.0448 139.85 11.8255 139.578 11.8255C139.307 11.8255 139.085 12.0433 139.085 12.3114L139.145 18.3626C139.145 21.503 136.66 24.0183 134.057 23.4731C132.493 23.1458 130.881 21.6304 130.886 19.1892V12.3099C130.886 12.0433 130.665 11.824 130.393 11.824C130.122 11.824 129.9 12.0418 129.9 12.3099V19.1669C129.901 21.7341 131.222 24.0671 133.994 24.4449Z" fill="white"/>
<path d="M162.54 11.6137C160.619 11.353 158.196 12.1721 157.184 14.8504C156.595 13.3024 155.265 11.8759 153.346 11.6137C151.388 11.347 149.516 11.9351 148.239 14.0164V12.2521C148.239 11.9929 148.024 11.7811 147.761 11.7811H147.751C147.477 11.7811 147.253 12.0018 147.253 12.2714V23.6924C147.253 23.959 147.474 24.1782 147.746 24.1782C148.016 24.1782 148.239 23.9605 148.239 23.6924L148.179 17.6412C148.179 14.5008 150.681 12.0403 153.285 12.5854C154.789 12.9009 156.338 14.3156 156.449 16.5954V23.6938C156.449 23.7116 156.453 23.7279 156.456 23.7457V23.7487C156.456 24.0153 156.756 24.2345 157.027 24.2345H157.029C157.299 24.2345 157.522 24.0168 157.522 23.7487V22.0925C157.526 21.0052 157.531 19.5713 157.531 18.4663C157.531 15.0726 159.082 12.0684 162.482 12.5869C164.063 12.8284 165.658 14.4297 165.654 16.8709V23.7501C165.654 24.0168 165.875 24.236 166.147 24.236C166.417 24.236 166.639 24.0183 166.639 23.7501V16.8916C166.776 14.8 165.313 11.9914 162.54 11.6137Z" fill="white"/>
<path d="M105.875 12.2951C105.875 12.1484 105.807 12.0092 105.693 11.9173C105.578 11.8255 105.429 11.8151 105.28 11.8181C103.25 11.8685 101.334 13.5009 100.841 14.7467V12.2136C100.841 11.9544 100.627 11.7426 100.364 11.7426H100.353C100.08 11.7426 99.8557 11.9633 99.8557 12.2329V23.6538C99.8557 23.9205 100.077 24.1397 100.349 24.1397H100.35C100.621 24.1397 100.843 23.922 100.843 23.6538L100.874 17.9374C100.874 15.1955 103.019 12.8698 105.498 12.7543C105.723 12.7439 105.878 12.5202 105.878 12.298V12.2951H105.875Z" fill="white"/>
<g clip-path="url(#clip0_3974_223128)">
<g opacity="0.602">
<mask id="mask0_3974_223128" style="mask-type:luminance" maskUnits="userSpaceOnUse" x="9" y="0" width="11" height="16">
<path d="M19.1358 0H9.66681V15.2781H19.1358V0Z" fill="white"/>
</mask>
<g mask="url(#mask0_3974_223128)">
<path d="M9.66681 0V11.0901L19.1353 15.2781L9.66681 0Z" fill="white"/>
</g>
</g>
<path d="M9.66678 0L0.196655 15.2781L9.66678 11.0901V0Z" fill="white"/>
<g opacity="0.602">
<mask id="mask1_3974_223128" style="mask-type:luminance" maskUnits="userSpaceOnUse" x="9" y="17" width="11" height="13">
<path d="M19.1419 17.0237H9.66681V30H19.1419V17.0237Z" fill="white"/>
</mask>
<g mask="url(#mask1_3974_223128)">
<path d="M9.66681 22.4646V30L19.1419 17.0237L9.66681 22.4646Z" fill="white"/>
</g>
</g>
<path d="M9.66678 30V22.4635L0.196655 17.0237L9.66678 30Z" fill="white"/>
<g opacity="0.2">
<mask id="mask2_3974_223128" style="mask-type:luminance" maskUnits="userSpaceOnUse" x="9" y="11" width="11" height="10">
<path d="M19.1358 11.0923H9.66681V20.7206H19.1358V11.0923Z" fill="white"/>
</mask>
<g mask="url(#mask2_3974_223128)">
<path d="M9.66681 20.7206L19.1353 15.2781L9.66681 11.0923V20.7206Z" fill="white"/>
</g>
</g>
<g opacity="0.602">
<mask id="mask3_3974_223128" style="mask-type:luminance" maskUnits="userSpaceOnUse" x="0" y="11" width="10" height="10">
<path d="M9.66678 11.0923H0.196655V20.7206H9.66678V11.0923Z" fill="white"/>
</mask>
<g mask="url(#mask3_3974_223128)">
<path d="M0.196655 15.2781L9.66678 20.7206V11.0923L0.196655 15.2781Z" fill="white"/>
</g>
</g>
</g>
<defs>
<clipPath id="clip0_3974_223128">
<rect width="18.9452" height="30" fill="white" transform="translate(0.196655)"/>
</clipPath>
</defs>
</svg>
