<svg width="117" height="30" viewBox="0 0 117 30" fill="none" xmlns="http://www.w3.org/2000/svg">
<g clip-path="url(#clip0_3974_223133)">
<path d="M11.2553 0.287377C11.9845 -0.0957922 13.0939 -0.0957922 13.8231 0.287377L21.2633 4.19726C21.7024 4.42802 21.9436 4.7719 21.9868 5.12688H21.9939V24.78C21.9842 25.1672 21.7408 25.5518 21.2633 25.8028L13.8231 29.7127C13.0939 30.0959 11.9845 30.0959 11.2553 29.7127L3.81511 25.8028C3.33961 25.553 3.11142 25.1655 3.10012 24.78C3.099 24.742 3.09886 24.7104 3.09993 24.6841L3.09989 5.25312C3.09914 5.23184 3.09907 5.21058 3.09968 5.18941L3.10012 5.12688L3.10345 5.12686C3.1365 4.76798 3.36672 4.4329 3.81511 4.19726L11.2553 0.287377ZM20.8226 16.0912L13.8231 19.7696C13.0939 20.1528 11.9845 20.1528 11.2553 19.7696L4.27106 16.0995V24.7411L11.2553 28.392C11.6497 28.6017 12.059 28.8061 12.4593 28.8321L12.5392 28.8347C12.9563 28.8361 13.3612 28.6254 13.7718 28.4259L20.8226 24.7097V16.0912ZM1.88997 24.3527C1.88997 25.1055 1.97793 25.6005 2.15257 25.9493C2.29732 26.2383 2.51451 26.4591 2.91108 26.7279L2.93372 26.7431C3.02075 26.8015 3.11662 26.8627 3.23332 26.9344L3.37094 27.0183L3.79354 27.2721L3.18743 28.2691L2.71442 27.9848L2.63492 27.9363C2.49815 27.8522 2.3848 27.7802 2.27907 27.7092C1.14883 26.951 0.727315 26.1246 0.718998 24.405L0.718872 24.3527H1.88997ZM11.9535 10.8236C11.8993 10.8421 11.8485 10.8635 11.8023 10.8879L4.36204 14.7978C4.35424 14.8019 4.34679 14.8059 4.33971 14.8099L4.3334 14.8136L4.34508 14.8202L4.36204 14.8294L11.8023 18.7393C11.8485 18.7636 11.8993 18.785 11.9535 18.8035V10.8236ZM13.1249 10.8236V18.8035C13.1791 18.785 13.2299 18.7636 13.2761 18.7393L20.7164 14.8294C20.7242 14.8253 20.7316 14.8212 20.7387 14.8172L20.745 14.8136L20.7333 14.8069L20.7164 14.7978L13.2761 10.8879C13.2299 10.8635 13.1791 10.8421 13.1249 10.8236ZM20.8226 6.52102L14.1483 10.0284L20.8226 13.5359V6.52102ZM4.27106 6.52922V13.5277L10.9299 10.0284L4.27106 6.52922ZM13.2761 1.31769C12.8892 1.11437 12.1892 1.11437 11.8023 1.31769L4.36204 5.22759C4.35424 5.2317 4.34679 5.23575 4.33971 5.23976L4.3334 5.24339L4.34508 5.25005L4.36204 5.25921L11.8023 9.1691C12.1892 9.37242 12.8892 9.37242 13.2761 9.1691L20.7164 5.25921C20.7242 5.25511 20.7316 5.25105 20.7387 5.24702L20.745 5.24339L20.7333 5.23673L20.7164 5.22759L13.2761 1.31769ZM21.9222 1.74645L22.3952 2.03068L22.4747 2.07925C22.6115 2.16324 22.7248 2.2354 22.8306 2.30632C23.9608 3.06445 24.3823 3.89102 24.3905 5.61049L24.3907 5.66288H23.2196C23.2196 4.90987 23.1317 4.41497 22.9571 4.06629C22.8123 3.7773 22.5951 3.55645 22.1985 3.28772L22.1759 3.27246C22.0889 3.21408 21.993 3.15293 21.8763 3.08105L21.7387 2.99719L21.3161 2.74345L21.9222 1.74645Z" fill="#1969FF"/>
<path d="M36.2876 23.9606V13.0004H39.327V10.9937H36.2876V9.55289C36.2876 7.92347 37.0004 7.10876 38.4256 7.10876C38.8376 7.10876 39.2757 7.17736 39.7393 7.31456V5.17915C39.1725 5.00763 38.5458 4.92188 37.8589 4.92188C36.5368 4.92188 35.5107 5.29922 34.7808 6.05391C34.051 6.80859 33.6861 7.90631 33.6861 9.34709V10.9937H31.1876V13.0004H33.6861V23.9606H36.2876ZM46.8483 24.1406C47.8444 24.1406 48.7158 23.9348 49.4628 23.523C50.2097 23.1115 50.7722 22.5198 51.15 21.7479V23.9606H53.7258V10.9937H51.15V13.1033C50.7549 12.3315 50.1884 11.7355 49.4499 11.3152C48.7116 10.895 47.8444 10.6849 46.8483 10.6849C45.7322 10.6849 44.7361 10.9679 43.8605 11.5339C42.9847 12.1 42.3022 12.8975 41.8128 13.9266C41.3234 14.9557 41.0787 16.1393 41.0787 17.4771C41.0787 18.8149 41.319 19.9856 41.7999 20.989C42.2806 21.9923 42.9547 22.7685 43.8218 23.3173C44.689 23.8662 45.6978 24.1406 46.8483 24.1406ZM47.4666 22.0824C46.2816 22.0824 45.3586 21.6793 44.6977 20.8732C44.0365 20.067 43.7058 18.935 43.7058 17.4771C43.7058 16.002 44.0365 14.8486 44.6977 14.0167C45.3586 13.1848 46.2732 12.7689 47.4408 12.7689C48.6256 12.7689 49.5401 13.172 50.1839 13.9781C50.828 14.7842 51.15 15.9334 51.15 17.4256C51.15 18.9007 50.828 20.0456 50.1839 20.8603C49.5401 21.675 48.6343 22.0824 47.4666 22.0824ZM60.1137 23.9606V16.5766C60.1137 15.4274 60.4442 14.5098 61.1054 13.8237C61.7665 13.1377 62.6466 12.7946 63.7456 12.7946C64.7072 12.7946 65.4068 13.0519 65.8449 13.5664C66.2827 14.081 66.5016 14.9043 66.5016 16.0363V23.9606H69.1032V15.882C69.1032 12.4173 67.549 10.6849 64.441 10.6849C63.4451 10.6849 62.5564 10.9036 61.775 11.341C60.9938 11.7784 60.3971 12.4087 59.9848 13.232L59.753 10.9937H57.3319C57.4693 12.0742 57.5379 13.292 57.5379 14.647V23.9606H60.1137ZM77.8093 24.1406C78.5304 24.1406 79.1745 24.0464 79.7412 23.8577V21.7479C79.2774 21.8851 78.8225 21.9537 78.376 21.9537C77.689 21.9537 77.1525 21.7694 76.7661 21.4006C76.3798 21.0318 76.1864 20.4015 76.1864 19.5096V13.0004H79.767V10.9937H76.1864V6.85146L73.5851 7.75195V10.9937H71.0607V13.0004H73.5851V19.7154C73.5851 21.1562 73.9543 22.2539 74.6925 23.0086C75.4311 23.7633 76.4698 24.1406 77.8093 24.1406ZM87.7519 24.1406C89.0054 24.1406 90.113 23.8662 91.0747 23.3173C92.0363 22.7685 92.7788 21.9881 93.3026 20.9761C93.8264 19.9641 94.0882 18.7806 94.0882 17.4256C94.0882 16.0706 93.8264 14.8829 93.3026 13.8623C92.7788 12.8418 92.0363 12.0571 91.0747 11.5082C90.113 10.9594 89.0054 10.6849 87.7519 10.6849C86.4811 10.6849 85.365 10.9594 84.4034 11.5082C83.4418 12.0571 82.699 12.8418 82.1752 13.8623C81.6516 14.8829 81.3896 16.0706 81.3896 17.4256C81.3896 18.7806 81.6516 19.9641 82.1752 20.9761C82.699 21.9881 83.4418 22.7685 84.4034 23.3173C85.365 23.8662 86.4811 24.1406 87.7519 24.1406ZM87.7261 22.0824C86.5411 22.0824 85.6268 21.6879 84.9828 20.8989C84.339 20.1099 84.0169 18.9522 84.0169 17.4256C84.0169 15.9334 84.3432 14.7842 84.9957 13.9781C85.6482 13.172 86.5669 12.7689 87.7519 12.7689C88.9196 12.7689 89.8254 13.172 90.4693 13.9781C91.1133 14.7842 91.4351 15.9334 91.4351 17.4256C91.4351 18.9522 91.1175 20.1099 90.4822 20.8989C89.8468 21.6879 88.928 22.0824 87.7261 22.0824ZM99.7034 23.9606V16.6281C99.7034 15.4446 99.9954 14.5098 100.579 13.8237C101.163 13.1377 101.953 12.7946 102.949 12.7946C103.808 12.7946 104.43 13.0519 104.816 13.5664C105.203 14.081 105.396 14.8957 105.396 16.0106V23.9606H107.997V16.6281C107.997 15.4446 108.285 14.5098 108.86 13.8237C109.436 13.1377 110.221 12.7946 111.217 12.7946C112.076 12.7946 112.698 13.0519 113.085 13.5664C113.471 14.081 113.664 14.8957 113.664 16.0106V23.9606H116.266V15.882C116.266 12.4173 114.823 10.6849 111.938 10.6849C110.977 10.6849 110.114 10.9079 109.35 11.3539C108.586 11.7998 108.006 12.4087 107.611 13.1805C106.993 11.5168 105.679 10.6849 103.67 10.6849C102.726 10.6849 101.901 10.8993 101.197 11.3281C100.493 11.7569 99.9525 12.3658 99.5747 13.1548L99.3429 10.9937H96.9216C97.059 12.0742 97.1276 13.292 97.1276 14.647V23.9606H99.7034Z" fill="#1969FF"/>
</g>
<defs>
<clipPath id="clip0_3974_223133">
<rect width="115.547" height="30" fill="white" transform="translate(0.718872)"/>
</clipPath>
</defs>
</svg>
