<svg width="300" height="105" viewBox="0 0 300 105" fill="none" xmlns="http://www.w3.org/2000/svg">
<g clip-path="url(#clip0_54_11)">
<path d="M52.4494 0C23.4746 0 0 23.4746 0 52.4494C0 81.4021 23.4746 104.877 52.4494 104.877C81.4242 104.877 104.877 81.4021 104.877 52.4494C104.877 23.4746 81.4021 0 52.4494 0Z" fill="url(#paint0_linear_54_11)"/>
<path fill-rule="evenodd" clip-rule="evenodd" d="M172.815 69.3026C172.815 70.7988 172.331 71.3266 170.791 71.3266H164.036C162.54 71.3266 162.012 70.8426 162.012 69.3689L162.122 53.0883L151.584 64.5287C150.572 65.6508 149.934 65.6508 148.922 64.5287L138.384 53.1543L138.428 69.3689C138.428 70.8651 137.9 71.3266 136.404 71.3266H129.869C128.373 71.3266 127.845 70.7985 127.845 69.3026V43.0771C127.845 41.5808 128.219 40.7451 129.342 39.6671L133.126 36.1029C134.248 35.0469 134.996 35.0909 136.052 36.213L150.308 50.8433L164.608 36.213C165.73 35.0909 166.412 35.0909 167.49 36.1029L171.362 39.7771C172.419 40.7891 172.793 41.691 172.793 43.1871V69.3026H172.815Z" fill="white"/>
<path fill-rule="evenodd" clip-rule="evenodd" d="M183.617 39.2491C183.617 37.7528 184.101 37.225 185.641 37.225H211.117C212.614 37.225 213.142 37.7089 213.142 39.2491V44.0892C213.142 45.5855 212.658 46.1132 211.184 46.1132L194.068 46.0033V49.5234L209.116 49.4793C210.613 49.4793 211.074 50.0073 211.074 51.5033V56.8712C211.074 58.3674 210.59 58.8953 209.116 58.8953L194.068 58.7853V62.5033L211.405 62.4594C212.901 62.4594 213.362 62.9875 213.362 64.4834V69.2798C213.362 70.776 212.834 71.3039 211.338 71.3039H185.641C184.145 71.3039 183.617 70.7759 183.617 69.2798V39.2491Z" fill="white"/>
<path fill-rule="evenodd" clip-rule="evenodd" d="M250.697 60.7876C252.193 60.7876 252.654 61.2717 252.654 62.8117V69.2359C252.654 70.7321 252.17 71.2599 250.63 71.2599H225.594C224.098 71.2599 223.57 70.7318 223.57 69.2359V39.205C223.57 37.7088 224.098 37.1811 225.594 37.1811H232.568C234.064 37.1811 234.592 37.665 234.592 39.1388L234.548 60.8313L250.697 60.7876Z" fill="white"/>
<path fill-rule="evenodd" clip-rule="evenodd" d="M272.037 61.0956H285.59L288.142 58.4996V50.0954L285.479 47.3893H272.037V61.0956ZM263.105 71.2603C261.609 71.2603 261.081 70.7323 261.081 69.2363V39.2491C261.081 37.7528 261.609 37.225 263.105 37.225H288.956C290.452 37.225 291.288 37.555 292.366 38.611L298.614 44.9252C299.67 45.9812 300 46.8392 300 48.3353V60.1934C300 61.6896 299.626 62.5916 298.57 63.6473L292.41 69.8074C291.354 70.8634 290.452 71.2375 288.956 71.2375L263.105 71.2594L263.105 71.2603Z" fill="white"/>
<path fill-rule="evenodd" clip-rule="evenodd" d="M76.0706 48.0424L69.6825 29.9109C69.0602 28.1839 67.3713 27.0112 65.4603 26.9898H65.4381C63.5269 26.9898 61.838 28.1412 61.2159 29.8896L52.4603 54.9655L43.7048 29.8897C43.3837 29.0315 42.8062 28.2929 42.0509 27.7741C41.2955 27.2554 40.3988 26.9816 39.4825 26.99H39.4604C38.5413 26.9817 37.6422 27.258 36.8863 27.781C36.1305 28.3039 35.5549 29.0479 35.2386 29.9109L28.8761 48.0501H22.7451C20.2784 48.0501 18.2784 49.969 18.2784 52.3357C18.2784 54.7025 20.278 56.6213 22.7451 56.6213H25.8758L22.282 66.8182C21.5042 69.0569 22.7488 71.4875 25.0821 72.2551C25.5413 72.4055 26.0209 72.4847 26.5042 72.4897C28.3709 72.4897 30.1043 71.3597 30.7264 69.5687L39.5264 44.6014L48.2381 69.6071C48.5593 70.4653 49.1368 71.2039 49.8921 71.7227C50.6475 72.2414 51.5442 72.5151 52.4605 72.5068C54.3715 72.5068 56.0604 71.3555 56.6827 69.6071L65.3945 44.6014L74.1944 69.5901C74.9722 71.8288 77.5055 73.044 79.861 72.2766C82.1943 71.5303 83.4611 69.0997 82.6611 66.8396L79.092 56.6349H82.2234C84.6901 56.6349 86.69 54.7159 86.69 52.3493C86.69 49.9827 84.6904 48.0636 82.2234 48.0636L76.0706 48.0424Z" fill="white"/>
<path fill-rule="evenodd" clip-rule="evenodd" d="M61.0411 30.3902L55.1346 47.3064L60.0129 60.047L65.3929 44.6034L61.1269 32.6188C60.9923 32.2058 60.9248 31.7739 60.927 31.3396C60.9261 31.0964 60.9484 30.8536 60.9935 30.6146C61.0166 30.5121 61.0311 30.441 61.0411 30.3902Z" fill="url(#paint1_linear_54_11)"/>
<path fill-rule="evenodd" clip-rule="evenodd" d="M35.1095 30.2776L29.1538 47.2576L34.078 60.0625L39.5274 44.6014L35.1947 32.5147C35.0595 32.1002 34.9917 31.6666 34.9939 31.2306C34.993 30.9867 35.0154 30.7432 35.0607 30.5035C35.0834 30.4003 35.0996 30.3287 35.1095 30.2776Z" fill="url(#paint2_linear_54_11)"/>
<path fill-rule="evenodd" clip-rule="evenodd" d="M65.5856 45.1465L65.5859 45.1455L65.5207 44.9625L65.5856 45.1465Z" fill="url(#paint3_linear_54_11)"/>
</g>
<defs>
<linearGradient id="paint0_linear_54_11" x1="8.56815" y1="77.9364" x2="96.9075" y2="26.6025" gradientUnits="userSpaceOnUse">
<stop offset="0.018" stop-color="#CB1A4F"/>
<stop offset="0.415" stop-color="#E51B44"/>
</linearGradient>
<linearGradient id="paint1_linear_54_11" x1="55.1759" y1="47.2276" x2="66.3864" y2="43.0188" gradientUnits="userSpaceOnUse">
<stop stop-color="#E51B44" stop-opacity="0"/>
<stop offset="0.046" stop-color="#E51B44" stop-opacity="0.049"/>
<stop offset="0.127" stop-color="#E51B44" stop-opacity="0.178"/>
<stop offset="0.206" stop-color="#E51B44" stop-opacity="0.33"/>
<stop offset="0.526" stop-color="#E51B44"/>
</linearGradient>
<linearGradient id="paint2_linear_54_11" x1="29.2016" y1="47.1944" x2="40.4788" y2="42.9606" gradientUnits="userSpaceOnUse">
<stop stop-color="#E51B44" stop-opacity="0"/>
<stop offset="0.046" stop-color="#E51B44" stop-opacity="0.049"/>
<stop offset="0.127" stop-color="#E51B44" stop-opacity="0.178"/>
<stop offset="0.206" stop-color="#E51B44" stop-opacity="0.33"/>
<stop offset="0.526" stop-color="#E51B44"/>
</linearGradient>
<linearGradient id="paint3_linear_54_11" x1="65.5011" y1="45.0002" x2="65.5983" y2="45.1016" gradientUnits="userSpaceOnUse">
<stop stop-color="#D33651" stop-opacity="0"/>
<stop offset="0.29" stop-color="#D43650" stop-opacity="0.326"/>
<stop offset="0.654" stop-color="#D6364F"/>
</linearGradient>
<clipPath id="clip0_54_11">
<rect width="300" height="104.877" fill="white"/>
</clipPath>
</defs>
</svg>
