<svg width="123" height="30" viewBox="0 0 123 30" fill="none" xmlns="http://www.w3.org/2000/svg">
<g clip-path="url(#clip0_3974_223135)">
<path d="M42.007 8.71669C43.0181 8.69096 44.0194 8.91924 44.9194 9.38063C45.7218 9.80593 46.3805 10.4588 46.8129 11.2573C47.2689 12.1212 47.4974 13.087 47.4768 14.0636C47.4715 14.5566 47.4242 15.0482 47.3352 15.5331C47.1551 16.6512 46.7225 17.7135 46.0703 18.6393C45.4408 19.5298 44.6056 20.2553 43.6358 20.7541C42.6337 21.2673 41.5217 21.529 40.3958 21.5164C39.3762 21.5426 38.3661 21.3145 37.4568 20.8524C36.6537 20.4319 35.9943 19.7812 35.5634 18.9836C35.1123 18.1221 34.8866 17.1604 34.9073 16.1882C34.9114 15.6834 34.9588 15.1799 35.049 14.6833C35.2292 13.5647 35.6621 12.5021 36.3149 11.576C36.9448 10.6846 37.7837 9.96116 38.7581 9.46915C39.7654 8.9624 40.8795 8.70437 42.007 8.71669ZM41.8122 11.0183C40.7754 11.004 39.7731 11.3909 39.0149 12.0983C38.1969 12.8687 37.6609 13.8911 37.4922 15.0019C37.4385 15.3298 37.4089 15.6612 37.4037 15.9934C37.4037 16.9849 37.687 17.7669 38.2535 18.3393C38.8201 18.9118 39.5988 19.198 40.5896 19.198C41.2752 19.2036 41.9512 19.0362 42.5549 18.7111C43.167 18.3773 43.6894 17.9005 44.0775 17.3213C44.5026 16.6885 44.7809 15.9686 44.8919 15.2144C44.9543 14.882 44.9839 14.5444 44.9804 14.2062C44.9804 13.2147 44.6971 12.436 44.1306 11.8701C43.564 11.3042 42.7912 11.0203 41.8122 11.0183ZM55.9939 11.461C57.0798 11.461 57.9444 11.797 58.5876 12.4692C59.2309 13.1413 59.5526 14.0737 59.5526 15.2665C59.5508 15.676 59.5153 16.0846 59.4463 16.4882C59.2854 17.4446 58.9299 18.3579 58.4017 19.1714C57.9335 19.8959 57.2949 20.4947 56.5417 20.9154C55.8271 21.3118 55.0229 21.5187 54.2057 21.5164C53.4883 21.5496 52.7806 21.3407 52.1962 20.9233C51.6869 20.5353 51.3421 19.97 51.2303 19.3396L50.045 26.0675H47.5486L50.0991 11.5849H52.5945L52.2227 13.621C52.5833 12.9654 53.1159 12.4206 53.7631 12.0452C54.4398 11.6515 55.211 11.4495 55.9939 11.461ZM53.8162 19.3219C54.5542 19.3329 55.269 19.0641 55.8168 18.5695C56.4087 18.0211 56.7959 17.2873 56.9145 16.4892C56.948 16.2664 56.9657 16.0416 56.9676 15.8164C56.9865 15.5228 56.9452 15.2284 56.8463 14.9514C56.7473 14.6743 56.5928 14.4204 56.3922 14.2052C56.1793 14.0098 55.9294 13.859 55.6572 13.7619C55.3851 13.6647 55.0962 13.6232 54.8076 13.6396C54.0673 13.6338 53.3523 13.9091 52.807 14.4098C52.2113 14.9553 51.8233 15.6905 51.7093 16.4901C51.675 16.7009 51.6572 16.914 51.6562 17.1275C51.6397 17.4222 51.6839 17.7171 51.7859 17.9941C51.8879 18.271 52.0456 18.5241 52.2493 18.7377C52.4577 18.9354 52.7039 19.0891 52.9732 19.1895C53.2424 19.2899 53.5291 19.3349 53.8162 19.3219ZM63.7663 17.9754C63.7397 18.1154 63.7278 18.2578 63.7309 18.4003C63.717 18.5227 63.7322 18.6466 63.7752 18.762C63.8183 18.8774 63.8881 18.9809 63.9788 19.0642C64.2246 19.2088 64.5091 19.2737 64.7932 19.2501H65.767L65.3775 21.3934H64.0663C63.1339 21.3934 62.4198 21.2049 61.924 20.8278C61.4283 20.4508 61.1804 19.8311 61.1804 18.9688C61.1831 18.6239 61.2187 18.2801 61.2867 17.9419L62.0303 13.6928H60.668L61.0398 11.5859H62.403L62.828 9.1603H65.3421L64.9171 11.5859H67.0771L66.7053 13.6928H64.5276L63.7663 17.9754ZM69.2903 9.01669C69.286 8.79892 69.3298 8.58289 69.4185 8.38397C69.5073 8.18506 69.6388 8.00816 69.8037 7.86587C70.1603 7.55367 70.6225 7.38906 71.0962 7.40555C71.4396 7.38592 71.7779 7.49657 72.0434 7.71538C72.1563 7.81622 72.2457 7.94065 72.3052 8.07986C72.3646 8.21907 72.3928 8.36966 72.3876 8.52096C72.3928 8.73671 72.3502 8.95093 72.263 9.14834C72.1758 9.34574 72.046 9.52145 71.8831 9.66292C71.5279 9.97078 71.0691 10.1322 70.5994 10.1144C70.2518 10.1357 69.9084 10.0286 69.6345 9.81342C69.5214 9.71489 69.4317 9.59228 69.3722 9.45458C69.3126 9.31689 69.2846 9.1676 69.2903 9.01768V9.01669ZM71.5919 11.5839L69.8568 21.3934H67.3614L69.0965 11.5849L71.5919 11.5839ZM86.3578 11.4423C87.3729 11.4423 88.1608 11.7167 88.7214 12.2655C89.2821 12.8144 89.5624 13.6023 89.5624 14.6292C89.5642 14.9852 89.5346 15.3406 89.4739 15.6914L88.4647 21.3934H85.9683L86.9421 15.9757C86.9763 15.7769 86.9941 15.5755 86.9952 15.3737C87.0111 15.1354 86.9768 14.8965 86.8945 14.6723C86.8121 14.4481 86.6836 14.2437 86.5172 14.0724C86.1506 13.7542 85.6739 13.5921 85.1893 13.621C84.5441 13.6025 83.9155 13.8268 83.4276 14.2495C82.9112 14.7409 82.5771 15.3933 82.4804 16.0996L81.5421 21.3934H79.0457L80.0194 15.9757C80.0537 15.7769 80.0714 15.5755 80.0726 15.3737C80.0885 15.1354 80.0542 14.8965 79.9718 14.6723C79.8895 14.4481 79.7609 14.2437 79.5945 14.0724C79.2279 13.7542 78.7513 13.5921 78.2667 13.621C77.6119 13.6056 76.9758 13.8397 76.4873 14.276C75.9603 14.785 75.6256 15.4606 75.5401 16.1882V16.0996L74.6194 21.3934H72.1054L73.8404 11.5849H76.3368L76.0172 13.4262C76.3689 12.8146 76.8798 12.3099 77.4955 11.9655C78.1199 11.6161 78.8249 11.436 79.5404 11.4433C80.2393 11.4157 80.9284 11.6141 81.5057 12.0088C82.0377 12.4061 82.4035 12.9864 82.5326 13.6377C82.9471 12.9749 83.5188 12.4245 84.1968 12.0354C84.8513 11.6484 85.5975 11.444 86.3578 11.4433V11.4423ZM92.5722 9.01669C92.568 8.79892 92.6118 8.58289 92.7005 8.38397C92.7892 8.18506 92.9208 8.00816 93.0857 7.86587C93.4423 7.55367 93.9045 7.38906 94.3781 7.40555C94.7216 7.38592 95.0599 7.49657 95.3253 7.71538C95.4383 7.81622 95.5276 7.94065 95.5871 8.07986C95.6466 8.21907 95.6748 8.36966 95.6696 8.52096C95.6747 8.73671 95.6322 8.95093 95.545 9.14834C95.4577 9.34574 95.328 9.52145 95.165 9.66292C94.8099 9.97078 94.3511 10.1322 93.8814 10.1144C93.5338 10.1357 93.1904 10.0286 92.9165 9.81342C92.8034 9.71489 92.7137 9.59228 92.6541 9.45458C92.5946 9.31689 92.5666 9.1676 92.5722 9.01768V9.01669ZM94.8739 11.5839L93.1388 21.3934H90.6424L92.3775 11.5849L94.8739 11.5839ZM100.062 11.461C101.384 11.461 102.391 11.759 103.081 12.3551C103.426 12.6575 103.705 13.0286 103.898 13.4448C104.092 13.8609 104.196 14.3129 104.205 14.7718H101.762C101.766 14.5553 101.723 14.3405 101.634 14.143C101.545 13.9455 101.413 13.7702 101.249 13.6298C100.847 13.3296 100.351 13.1821 99.8499 13.2137C99.4642 13.1957 99.0828 13.3012 98.7611 13.5147C98.629 13.6047 98.5218 13.7265 98.4491 13.8688C98.3764 14.0111 98.3406 14.1694 98.345 14.3292C98.3433 14.4942 98.3903 14.6561 98.48 14.7946C98.5698 14.9332 98.6983 15.0422 98.8496 15.1082C99.3515 15.3448 99.8766 15.5287 100.416 15.657C100.984 15.8173 101.543 16.0094 102.089 16.2324C102.517 16.4132 102.898 16.6886 103.204 17.038C103.53 17.4291 103.697 17.9282 103.673 18.4367C103.673 18.6628 103.649 18.8883 103.602 19.1095C103.53 19.4686 103.384 19.8089 103.174 20.1088C102.964 20.4088 102.694 20.662 102.381 20.8524C101.708 21.2951 100.811 21.5164 99.6896 21.5164C98.403 21.5164 97.3729 21.2246 96.5991 20.641C96.221 20.3592 95.9154 19.9914 95.7076 19.5681C95.4997 19.1448 95.3957 18.678 95.404 18.2065H97.8473C97.8232 18.4232 97.8572 18.6424 97.9459 18.8416C98.0345 19.0407 98.1747 19.2126 98.3519 19.3396C98.8076 19.6476 99.352 19.7969 99.9011 19.7646C100.288 19.791 100.671 19.6775 100.981 19.4449C101.101 19.3461 101.196 19.2215 101.261 19.0804C101.325 18.9394 101.357 18.7855 101.353 18.6305C101.356 18.5094 101.333 18.3891 101.286 18.2776C101.238 18.1661 101.168 18.0661 101.078 17.9842C100.881 17.8042 100.649 17.6657 100.397 17.577C100.125 17.4767 99.7358 17.3557 99.2283 17.2141C98.6754 17.0651 98.1316 16.8845 97.5994 16.6731C97.1893 16.5041 96.8253 16.2402 96.5372 15.9029C96.2294 15.524 96.0719 15.045 96.0945 14.5574C96.0956 14.3438 96.1133 14.1307 96.1476 13.92C96.2142 13.5552 96.3567 13.2086 96.5658 12.9024C96.7748 12.5962 97.0459 12.3373 97.3614 12.1426C98.0401 11.6882 98.9401 11.461 100.061 11.461H100.062ZM119.077 11.4433C120.093 11.4433 120.88 11.7177 121.441 12.2665C122.002 12.8154 122.282 13.6033 122.282 14.6301C122.284 14.9862 122.254 15.3416 122.194 15.6924L121.183 21.3934H118.687L119.661 15.9757C119.695 15.7769 119.713 15.5755 119.714 15.3737C119.73 15.1354 119.696 14.8965 119.613 14.6723C119.531 14.4481 119.402 14.2437 119.236 14.0724C118.869 13.7542 118.393 13.5921 117.908 13.621C117.263 13.6025 116.634 13.8268 116.146 14.2495C115.63 14.7409 115.296 15.3933 115.199 16.0996L114.261 21.3934H111.764L112.738 15.9757C112.772 15.7769 112.79 15.5755 112.791 15.3737C112.807 15.1354 112.773 14.8965 112.691 14.6723C112.608 14.4481 112.48 14.2437 112.313 14.0724C111.947 13.7542 111.47 13.5921 110.985 13.621C110.331 13.6056 109.694 13.8397 109.206 14.276C108.679 14.785 108.344 15.4606 108.259 16.1882V16.0996L107.338 21.3934H104.824L106.558 11.5849H109.055L108.735 13.4262C109.087 12.8146 109.597 12.3099 110.213 11.9655C110.838 11.6161 111.543 11.436 112.258 11.4433C112.957 11.4157 113.646 11.6141 114.223 12.0088C114.755 12.4061 115.121 12.9864 115.25 13.6377C115.665 12.9749 116.236 12.4245 116.915 12.0354C117.569 11.6483 118.316 11.4438 119.076 11.4433H119.077Z" fill="white"/>
<path d="M15.5991 30C23.8834 30 30.5991 23.2843 30.5991 15C30.5991 6.71573 23.8834 0 15.5991 0C7.31485 0 0.599121 6.71573 0.599121 15C0.599121 23.2843 7.31485 30 15.5991 30Z" fill="#FF0420"/>
<path d="M11.2224 18.9779C10.4419 19.0112 9.67177 18.79 9.02793 18.3477C8.74978 18.1352 8.52757 17.8582 8.38053 17.5406C8.23348 17.223 8.16603 16.8743 8.18399 16.5248C8.18742 16.3211 8.20624 16.118 8.2403 15.9172C8.33784 15.3762 8.47662 14.7273 8.65662 13.9704C9.16678 11.9073 10.4833 10.8757 12.6063 10.8757C13.1384 10.867 13.6667 10.9666 14.1592 11.1683C14.5963 11.3397 14.9724 11.6374 15.2394 12.0236C15.5087 12.4215 15.6463 12.8938 15.6328 13.3741C15.629 13.574 15.6102 13.7733 15.5765 13.9704C15.4639 14.6381 15.3289 15.287 15.1715 15.9172C14.9092 16.9449 14.4554 17.7138 13.81 18.224C13.1652 18.7266 12.3027 18.9779 11.2224 18.9779ZM11.38 17.3574C11.7697 17.3682 12.15 17.2362 12.4492 16.9861C12.7798 16.6863 13.0047 16.2876 13.0905 15.8496C13.2631 15.1446 13.3942 14.5295 13.4839 14.0041C13.5141 13.8445 13.5292 13.6825 13.5289 13.5201C13.5289 12.8373 13.1726 12.496 12.46 12.4962C12.0671 12.4868 11.6838 12.6185 11.3797 12.8675C11.0552 13.1705 10.8346 13.5683 10.7495 14.0041C10.6144 14.5067 10.4794 15.1219 10.3445 15.8496C10.3139 16.0052 10.2989 16.1635 10.2995 16.3222C10.2995 17.0123 10.6596 17.3574 11.38 17.3574Z" fill="white"/>
<path d="M16.1511 18.8656C16.1154 18.8677 16.0796 18.8617 16.0465 18.8481C16.0134 18.8344 15.9837 18.8135 15.9598 18.7869C15.9224 18.7264 15.9103 18.6536 15.9261 18.5843L17.479 11.2697C17.4927 11.189 17.5367 11.1165 17.6019 11.0671C17.6622 11.0173 17.7377 10.9895 17.8159 10.9884H20.8092C21.514 10.9538 22.2126 11.1343 22.8123 11.506C23.0589 11.6675 23.2592 11.8905 23.3934 12.153C23.5276 12.4154 23.591 12.7083 23.5776 13.0028C23.5765 13.1998 23.5538 13.396 23.51 13.588C23.3859 14.3462 22.9799 15.0296 22.3734 15.5012C21.8108 15.9138 21.0381 16.1201 20.0553 16.1201H18.5364L18.0187 18.5845C18.005 18.6652 17.961 18.7377 17.8958 18.7871C17.8355 18.8369 17.7602 18.8646 17.6821 18.8658L16.1511 18.8656ZM20.1347 14.5667C20.4296 14.5732 20.7183 14.4823 20.9563 14.308C21.2011 14.1283 21.3697 13.8633 21.4289 13.5654C21.4498 13.4541 21.4611 13.3411 21.4626 13.2278C21.469 13.1363 21.4552 13.0445 21.4221 12.9589C21.389 12.8733 21.3375 12.796 21.2713 12.7326C21.0835 12.5939 20.851 12.5297 20.6187 12.5526H19.2684L18.8408 14.5667H20.1347Z" fill="white"/>
</g>
<defs>
<clipPath id="clip0_3974_223135">
<rect width="121.682" height="30" fill="white" transform="translate(0.599121)"/>
</clipPath>
</defs>
</svg>
