<svg width="1382" height="400" viewBox="0 0 1382 400" fill="none" xmlns="http://www.w3.org/2000/svg">
<path d="M872.141 0H866.347C785.015 0 736.516 52.0346 703.468 97.1885C690.807 114.605 679.004 132.882 667.845 150.513C646.6 184.056 626.428 215.449 602.608 238.241C577.5 262.323 545.954 275.224 511.404 275.224C483.292 274.364 457.112 262.538 437.583 242.111C418.055 221.684 407.325 194.592 407.325 165.995C407.325 137.397 419.128 108.585 439.3 88.1577C459.687 67.5159 486.941 56.1199 515.911 56.1199H516.126C527.928 56.1199 541.663 58.4851 555.182 62.7855C557.757 63.6456 559.903 65.5808 560.762 68.376C561.62 71.1712 561.191 74.1815 559.474 76.5467L489.087 178.466C486.941 181.476 486.726 185.346 488.443 188.572C490.159 191.797 493.378 193.732 497.027 193.732H536.941C542.306 193.732 547.457 191.152 550.461 186.636L622.995 80.8471C625.999 76.7617 627.716 72.0313 628.789 66.8709C629.647 61.9254 629.647 56.765 628.789 51.8195C627.716 46.8741 625.57 42.1437 622.78 38.0583C619.776 33.973 616.127 30.5327 611.836 27.7374C608.831 26.0173 605.827 24.2971 602.608 22.577C575.998 7.9557 545.74 0.215019 515.482 0.215019C471.919 0.215019 430.931 17.4165 400.029 48.5943C369.556 79.342 351.959 121.916 351.959 165.78C351.959 209.643 368.054 249.637 397.668 280.6C427.283 311.777 466.983 329.624 509.688 330.914C555.611 330.914 596.17 315.003 633.51 282.105C666.772 252.862 692.309 214.589 713.769 181.261C730.293 155.244 745.958 130.731 763.126 110.52C769.135 103.424 774.929 97.1885 780.723 91.8131C806.689 67.5159 833.943 56.1199 866.561 56.1199H870.639C898.751 56.98 924.931 68.591 944.46 89.2328C961.198 106.864 971.928 130.301 974.289 154.814C974.718 158.469 974.932 162.124 974.932 165.78C974.932 195.022 963.559 222.545 942.958 243.186C922.571 263.828 895.317 275.224 866.347 275.224H866.132C851.11 275.224 836.732 271.569 827.076 268.559C824.5 267.698 822.355 265.763 821.496 262.968C820.638 260.173 821.067 257.163 822.784 254.582L892.957 153.738C895.103 150.728 895.317 146.858 893.6 143.633C891.884 140.192 888.665 138.472 885.017 138.472H845.102C839.737 138.472 834.801 141.052 831.582 145.568L759.049 250.282C756.044 254.582 754.328 259.098 753.255 264.258C752.396 269.204 752.396 274.364 753.255 279.309C754.328 284.255 756.473 288.985 759.263 293.071C762.053 297.156 766.13 300.811 770.422 303.392C773.427 305.112 776.216 306.832 779.221 308.552C805.831 323.173 836.089 330.914 866.347 330.914C910.124 330.914 951.112 313.713 982.014 282.535C1012.92 251.357 1030.08 210.073 1030.08 165.995C1030.08 121.916 1013.56 80.8471 984.16 50.3144C954.546 19.1367 914.846 1.29011 872.141 0Z" fill="#6666FE"/>
<path d="M1329.04 5.61201L1319.62 30.7692C1318.87 32.7904 1316.4 33.4785 1314.66 32.2098C1287.11 11.8691 1253.03 -0.1505 1216.12 0.0215155C1127.23 0.430051 1053.84 72.5689 1051.82 161.608C1049.72 254.733 1124.42 330.893 1216.89 330.893C1257.41 330.893 1294.49 316.25 1323.22 291.996C1324.64 290.813 1326.76 291.781 1326.76 293.608V391.377C1326.76 396.129 1330.6 399.978 1335.35 399.978H1373.42C1378.16 399.978 1382 396.129 1382 391.377V8.66527C1382 3.91336 1378.16 0.0645192 1373.42 0.0645192H1337.04C1333.46 0.0430173 1330.26 2.25771 1328.99 5.63351L1329.04 5.61201ZM1224.08 275.332C1157.85 279.568 1103.02 224.63 1107.25 158.275C1110.75 103.424 1154.98 59.1087 1209.72 55.6039C1275.95 51.368 1330.8 106.305 1326.55 172.66C1323.05 227.511 1278.82 271.827 1224.08 275.332Z" fill="#6666FE"/>
<path d="M44.9579 0.0434008H8.58385C3.84127 0.0649027 0 3.91374 0 8.66566V391.399C0 396.151 3.84127 400 8.58385 400H46.6532C51.3958 400 55.2371 396.151 55.2371 391.399V293.63C55.2371 291.781 57.383 290.813 58.7779 292.018C87.5124 316.272 124.595 330.914 165.11 330.914C257.58 330.914 332.281 254.755 330.178 161.63C328.182 72.5908 254.79 0.451937 165.904 0.021899C128.994 -0.150116 94.9159 11.8479 67.3618 32.2102C65.6235 33.5003 63.1557 32.7908 62.4046 30.7696L52.9838 5.61239C51.7392 2.2581 48.5202 0.021899 44.9579 0.0434008ZM55.4731 172.661C51.2456 106.306 106.075 51.3469 172.299 55.6043C227.043 59.1091 271.271 103.424 274.769 158.276C278.997 224.631 224.167 279.568 157.943 275.332C103.199 271.827 58.9711 227.512 55.4731 172.661Z" fill="#6666FE"/>
</svg>
