<svg width="791" height="149" viewBox="0 0 791 149" fill="none" xmlns="http://www.w3.org/2000/svg">
<path d="M105.11 111.75L138.69 92.3602C140.47 91.3302 141.57 89.4202 141.57 87.3702V48.5902C141.57 46.5402 140.47 44.6302 138.69 43.6002L105.11 24.2102C103.33 23.1802 101.12 23.1902 99.35 24.2102L65.77 43.6002C63.99 44.6302 62.89 46.5402 62.89 48.5902V117.89L39.34 131.48L15.79 117.89V90.7002L39.34 77.1102L54.87 86.0802V67.8402L42.22 60.5302C41.35 60.0302 40.35 59.7602 39.34 59.7602C38.33 59.7602 37.33 60.0302 36.46 60.5302L2.88 79.9202C1.1 80.9502 0 82.8602 0 84.9102V123.69C0 125.74 1.1 127.65 2.88 128.68L36.46 148.07C38.24 149.09 40.44 149.09 42.22 148.07L75.8 128.68C77.58 127.65 78.68 125.74 78.68 123.69V54.3902L79.1 54.1502L102.22 40.8002L125.77 54.3902V81.5802L102.22 95.1702L86.71 86.2202V104.46L99.34 111.75C101.12 112.77 103.33 112.77 105.1 111.75H105.11Z" fill="url(#paint0_linear_408_192)"/>
<path d="M178.58 132.06V53.0199H190.34L191.46 59.3999H192.02C195.38 55.0299 201.09 51.8999 209.04 51.8999C223.59 51.8999 235.24 63.7699 235.24 81.3399C235.24 98.9099 223.6 110.78 209.04 110.78C201.2 110.78 195.72 107.53 192.81 103.84H192.25V132.05H178.59L178.58 132.06ZM221.57 81.3499C221.57 71.0499 214.96 64.5599 206.9 64.5599C198.84 64.5599 192.23 71.0499 192.23 81.3499C192.23 91.6499 198.84 98.1399 206.9 98.1399C214.96 98.1399 221.57 91.6499 221.57 81.3499Z" fill="#F7F5F4"/>
<path d="M242.17 81.3399C242.17 64.2099 254.48 51.8999 270.94 51.8999C287.4 51.8999 299.71 64.2099 299.71 81.3399C299.71 98.4699 287.4 110.78 270.94 110.78C254.48 110.78 242.17 98.3499 242.17 81.3399ZM285.94 81.3399C285.94 71.2599 279.22 64.5499 270.94 64.5499C262.66 64.5499 255.83 71.2699 255.83 81.3399C255.83 91.4099 262.66 98.0199 270.94 98.0199C279.22 98.0199 285.94 91.4199 285.94 81.3399Z" fill="#F7F5F4"/>
<path d="M309.6 109.67V31.3H323.26V109.67H309.6Z" fill="#F7F5F4"/>
<path d="M373.98 53.02H388.53L363.9 121.87C361.44 128.7 358.08 132.06 349.23 132.06H336.02V119.41H347.22C349.24 119.41 350.35 118.4 351.03 116.72L352.37 113.03L329.31 53.02H343.86L358.53 92.32H360.77L373.98 53.02Z" fill="#F7F5F4"/>
<path d="M391.13 112.47H405.01C405.57 116.16 409.26 121.2 418 121.2C426.17 121.2 431.55 116.05 431.55 108.21V100.26H430.99C427.97 103.51 422.37 106.42 415.2 106.42C400.65 106.42 389.45 95.2199 389.45 79.0999C389.45 62.9799 400.65 51.8999 415.2 51.8999C422.7 51.8999 428.19 54.9199 431.66 59.1799H432.22L433.34 53.0199H445.21V108.21C445.21 123.21 435.13 133.18 418 133.18C398.86 133.18 391.47 120.64 391.13 112.47ZM431.55 79.1099C431.55 70.2699 425.28 64.1099 417.33 64.1099C409.38 64.1099 403.22 70.2699 403.22 79.1099C403.22 87.9499 409.49 94.2199 417.33 94.2199C425.17 94.2199 431.55 88.0599 431.55 79.1099Z" fill="#F7F5F4"/>
<path d="M454.71 81.3399C454.71 64.2099 467.02 51.8999 483.48 51.8999C499.94 51.8999 512.25 64.2099 512.25 81.3399C512.25 98.4699 499.94 110.78 483.48 110.78C467.02 110.78 454.71 98.3499 454.71 81.3399ZM498.48 81.3399C498.48 71.2599 491.76 64.5499 483.48 64.5499C475.2 64.5499 468.37 71.2699 468.37 81.3399C468.37 91.4099 475.2 98.0199 483.48 98.0199C491.76 98.0199 498.48 91.4199 498.48 81.3399Z" fill="#F7F5F4"/>
<path d="M521.76 109.67V53.0199H533.51L534.63 58.3899H535.19C537.43 55.8199 543.03 51.8999 551.53 51.8999C564.52 51.8999 573.92 61.2999 573.92 75.6299V109.66H560.26V77.4199C560.26 70.1399 555.11 64.8799 548.06 64.8799C541.01 64.8799 535.41 70.3699 535.41 77.4199V109.66H521.75L521.76 109.67Z" fill="#F7F5F4"/>
<path d="M606.063 109V32.7H637.673C641.815 32.7 645.557 33.681 648.9 35.643C652.243 37.605 654.859 40.33 656.748 43.818C658.637 47.2333 659.582 51.1573 659.582 55.59C659.582 60.0227 658.637 63.983 656.748 67.471C654.859 70.8863 652.243 73.575 648.9 75.537C645.557 77.499 641.815 78.48 637.673 78.48H612.603V109H606.063ZM637.673 72.267C642.106 72.267 645.775 70.741 648.682 67.689C651.589 64.637 653.042 60.604 653.042 55.59C653.042 50.576 651.589 46.543 648.682 43.491C645.775 40.439 642.106 38.913 637.673 38.913H612.603V72.267H637.673ZM693.621 110.09C688.897 110.09 684.574 108.927 680.65 106.602C676.798 104.204 673.746 100.861 671.494 96.574C669.241 92.2867 668.115 87.3453 668.115 81.75C668.115 76.1547 669.241 71.2133 671.494 66.926C673.746 62.6387 676.798 59.3323 680.65 57.007C684.574 54.609 688.897 53.41 693.621 53.41C698.344 53.41 702.631 54.609 706.483 57.007C710.334 59.3323 713.386 62.6387 715.639 66.926C717.891 71.2133 719.018 76.1547 719.018 81.75C719.018 87.3453 717.891 92.2867 715.639 96.574C713.386 100.861 710.334 104.204 706.483 106.602C702.631 108.927 698.344 110.09 693.621 110.09ZM693.621 104.313C697.109 104.313 700.306 103.368 703.213 101.479C706.192 99.5897 708.517 96.9373 710.189 93.522C711.933 90.1067 712.805 86.1827 712.805 81.75C712.805 77.3173 711.933 73.3933 710.189 69.978C708.517 66.5627 706.192 63.9103 703.213 62.021C700.306 60.1317 697.109 59.187 693.621 59.187C690.06 59.187 686.79 60.1317 683.811 62.021C680.904 63.9103 678.579 66.5627 676.835 69.978C675.163 73.3933 674.328 77.3173 674.328 81.75C674.328 86.1827 675.163 90.1067 676.835 93.522C678.579 96.9373 680.904 99.5897 683.811 101.479C686.79 103.368 690.06 104.313 693.621 104.313ZM757.139 110.09C751.471 110.09 746.493 109.036 742.206 106.929C737.991 104.822 734.721 101.988 732.396 98.427C730.07 94.8663 728.908 90.9423 728.908 86.655H735.448C735.448 89.8523 736.283 92.759 737.955 95.375C739.699 97.991 742.206 100.062 745.476 101.588C748.746 103.114 752.633 103.877 757.139 103.877C763.969 103.877 769.092 102.496 772.508 99.735C775.923 96.9737 777.631 93.3403 777.631 88.835C777.631 81.2777 772.726 76.5543 762.916 74.665L749.509 72.158C743.114 70.9227 738.354 68.7427 735.23 65.618C732.105 62.4207 730.543 58.1697 730.543 52.865C730.543 48.7957 731.56 45.1623 733.595 41.965C735.629 38.695 738.572 36.1517 742.424 34.335C746.275 32.5183 750.817 31.61 756.049 31.61C761.571 31.61 766.404 32.6637 770.546 34.771C774.76 36.8057 777.994 39.6033 780.247 43.164C782.499 46.7247 783.626 50.685 783.626 55.045H777.086C777.086 51.8477 776.214 48.941 774.47 46.325C772.798 43.709 770.364 41.638 767.167 40.112C764.042 38.586 760.336 37.823 756.049 37.823C750.017 37.823 745.33 39.24 741.988 42.074C738.718 44.8353 737.083 48.4323 737.083 52.865C737.083 60.059 741.806 64.528 751.253 66.272L762.916 68.452C770.255 69.8327 775.632 72.1943 779.048 75.537C782.463 78.8797 784.171 83.3123 784.171 88.835C784.171 92.977 783.117 96.6467 781.01 99.844C778.902 103.041 775.814 105.548 771.745 107.365C767.748 109.182 762.879 110.09 757.139 110.09Z" fill="#F7F5F4"/>
<defs>
<linearGradient id="paint0_linear_408_192" x1="-0.46" y1="127.49" x2="135.48" y2="48.5802" gradientUnits="userSpaceOnUse">
<stop stop-color="#A726C1"/>
<stop offset="0.88" stop-color="#803BDF"/>
<stop offset="1" stop-color="#7B3FE4"/>
</linearGradient>
</defs>
</svg>
